<svg viewBox="0 0 640 400" data-background-color="#ffffff" preserveAspectRatio="xMidYMid meet" height="400" width="640"
  xmlns="http://www.w3.org/2000/svg" xmlns:xlink="http://www.w3.org/1999/xlink">
  <g id="tight-bounds" transform="matrix(1,0,0,1,122.24000000000001,166.1732971977176)">
    <svg
      viewBox="0 0 395.52 67.65340560456482" height="67.65340560456482" width="395.52">
      <g>
        <svg viewBox="0 0 544.0788120390106 93.06428133021079" height="67.65340560456482" width="395.52">
          <g transform="matrix(1,0,0,1,148.5588120390106,12.86199546604216)">
            <svg viewBox="0 0 395.52 67.34029039812647"
              height="67.34029039812647" width="395.52">
              <g id="textblocktransform">
                <svg viewBox="0 0 395.52 67.34029039812647" height="67.34029039812647"
                  width="395.52" id="textblock">
                  <g>
                    <svg viewBox="0 0 395.52 67.34029039812647" height="67.34029039812647" width="395.52">
                      <g transform="matrix(1,0,0,1,0,0)">
                        <svg width="395.52"
                          viewBox="1.600000023841858 -35.25 213.489990234375 36.3510856628418"
                          height="67.34029039812647" data-palette-color="#e6b17e">
                          <path
                            d="M13.95 1Q9.25 1 5.85-1.58 2.45-4.15 1.6-8.3L1.6-8.3 5.05-9.8Q5.75-6.7 8.22-4.75 10.7-2.8 14.05-2.8L14.05-2.8Q17.55-2.8 19.78-4.83 22-6.85 22-10.05L22-10.05Q22-11.7 21.35-12.83 20.7-13.95 19.1-14.95 17.5-15.95 14.55-17.15L14.55-17.15Q9.55-19.2 7.35-21.43 5.15-23.65 5.15-26.65L5.15-26.65Q5.15-29.05 6.43-31.03 7.7-33 9.9-34.13 12.1-35.25 14.8-35.25L14.8-35.25Q17.15-35.25 19.07-34.4 21-33.55 22.13-32.08 23.25-30.6 23.25-28.85L23.25-28.85Q23.25-26.7 21.85-25.35 20.45-24 18.3-24L18.3-24Q17.65-24 17.3-24.05L17.3-24.05 17.6-27.45Q17.9-27.35 18.05-27.35L18.05-27.35Q18.55-27.35 18.93-27.78 19.3-28.2 19.3-28.8L19.3-28.8Q19.3-29.9 18-30.68 16.7-31.45 14.9-31.45L14.9-31.45Q12.6-31.45 10.9-30.1 9.2-28.75 9.2-26.85L9.2-26.85Q9.2-25.15 10.9-23.68 12.6-22.2 16.1-20.75L16.1-20.75Q21.45-18.55 23.8-16.07 26.15-13.6 26.15-10.1L26.15-10.1Q26.15-6.95 24.55-4.42 22.95-1.9 20.18-0.45 17.4 1 13.95 1L13.95 1ZM34.45-29.35Q34.45-30.1 34.02-30.68 33.6-31.25 32.75-31.25L32.75-31.25Q31.45-31.2 31.05-30.35L31.05-30.35 28.25-32.35Q28.75-33.4 29.92-34.2 31.1-35 32.95-35L32.95-35Q35.55-35 37.02-33.45 38.5-31.9 38.55-29.4L38.55-29.4 38.55-19.75 55.3-19.75 55.3-34.3 59.4-34.3 59.4 0.05 55.3 0.05 55.3-15.95 38.55-15.95 38.55 0.05 34.45 0.05 34.45-29.35ZM83.84 0.65Q79.8 0.65 76.84-1.28 73.9-3.2 72.32-6.4 70.75-9.6 70.75-13.35L70.75-13.35 70.75-29.4Q70.75-30.15 70.34-30.73 69.95-31.3 69.09-31.3L69.09-31.3Q67.9-31.3 67.34-30.45L67.34-30.45 64.59-32.5Q65.09-33.5 66.27-34.27 67.45-35.05 69.25-35.05L69.25-35.05Q71.9-35.05 73.37-33.48 74.84-31.9 74.84-29.4L74.84-29.4 74.84-13.35Q74.84-10.55 75.9-8.22 76.95-5.9 78.97-4.5 81-3.1 83.8-3.1L83.8-3.1Q86.75-3.1 88.75-4.58 90.75-6.05 91.72-8.4 92.7-10.75 92.7-13.35L92.7-13.35 92.7-34.15 96.8-34.15 96.8-13.35Q96.8-9.85 95.34-6.63 93.9-3.4 90.97-1.38 88.05 0.65 83.84 0.65L83.84 0.65ZM120.94 1.1Q115.99 1.05 112.07-1.23 108.14-3.5 105.92-7.43 103.69-11.35 103.69-16.3L103.69-16.3 103.69-17.75Q103.69-22.5 105.97-26.48 108.24-30.45 112.17-32.77 116.09-35.1 120.74-35.1L120.74-35.1Q125.44-35.1 129.34-32.77 133.24-30.45 135.54-26.48 137.84-22.5 137.84-17.75L137.84-17.75 137.84-16.3Q137.84-11.35 135.62-7.35 133.39-3.35 129.54-1.1 125.69 1.15 120.94 1.1L120.94 1.1ZM120.79-2.7Q124.44-2.7 127.39-4.48 130.34-6.25 132.04-9.35 133.74-12.45 133.74-16.3L133.74-16.3 133.74-17.75Q133.74-21.4 131.99-24.53 130.24-27.65 127.27-29.48 124.29-31.3 120.69-31.3L120.69-31.3Q117.14-31.3 114.19-29.48 111.24-27.65 109.52-24.53 107.79-21.4 107.79-17.75L107.79-17.75 107.79-16.3Q107.79-12.45 109.49-9.35 111.19-6.25 114.17-4.48 117.14-2.7 120.79-2.7L120.79-2.7ZM160.69 1.1Q155.74 1.05 151.82-1.23 147.89-3.5 145.67-7.43 143.44-11.35 143.44-16.3L143.44-16.3 143.44-17.75Q143.44-22.5 145.72-26.48 147.99-30.45 151.92-32.77 155.84-35.1 160.49-35.1L160.49-35.1Q165.19-35.1 169.09-32.77 172.99-30.45 175.29-26.48 177.59-22.5 177.59-17.75L177.59-17.75 177.59-16.3Q177.59-11.35 175.37-7.35 173.14-3.35 169.29-1.1 165.44 1.15 160.69 1.1L160.69 1.1ZM160.54-2.7Q164.19-2.7 167.14-4.48 170.09-6.25 171.79-9.35 173.49-12.45 173.49-16.3L173.49-16.3 173.49-17.75Q173.49-21.4 171.74-24.53 169.99-27.65 167.02-29.48 164.04-31.3 160.44-31.3L160.44-31.3Q156.89-31.3 153.94-29.48 150.99-27.65 149.27-24.53 147.54-21.4 147.54-17.75L147.54-17.75 147.54-16.3Q147.54-12.45 149.24-9.35 150.94-6.25 153.92-4.48 156.89-2.7 160.54-2.7L160.54-2.7ZM185.09 0.45Q183.14 0.45 181.94-0.53 180.74-1.5 180.39-3.05L180.39-3.05 183.34-4.65Q183.49-4 183.86-3.63 184.24-3.25 184.74-3.25L184.74-3.25Q185.24-3.25 185.59-3.63 185.94-4 186.24-4.7L186.24-4.7 198.74-34.4 200.44-34.4 215.09 0.05 210.74 0.05 206.14-11 193.14-11 189.59-2.5Q189.04-1.15 187.74-0.35 186.44 0.45 185.09 0.45L185.09 0.45ZM194.64-14.7L204.44-14.7 199.64-27.4 199.54-28.15 199.49-27.4 194.64-14.7Z"
                            opacity="1" transform="matrix(1,0,0,1,0,0)" fill="#e6b17e" class="wordmark-text-0"
                            data-fill-palette-color="primary" id="text-0"></path>
                        </svg>
                      </g>
                    </svg>
                  </g>
                </svg>
              </g>
            </svg>
          </g>
          <g>
            <svg viewBox="0 0 132.6613856429825 93.06428133021079" height="93.06428133021079"
              width="132.6613856429825">
              <g>
                <svg xmlns="http://www.w3.org/2000/svg" xmlns:xlink="http://www.w3.org/1999/xlink" version="1.1" x="8"
                  y="0" viewBox="0 0 100 79.77299499511719" enable-background="new 0 0 100 79.773" xml:space="preserve"
                  width="116.6613856429825" height="93.06428133021079" class="icon-icon-0"
                  data-fill-palette-color="accent" id="icon-0">
                  <path
                    d="M0 39.481c0 0 0 35.068 0 36.753 0 2.297 1 3.539 2.957 3.539 1.303 0 54.212 0 67.46 0 2.104 0 3.725-1.711 3.725-2.334 0-0.418 0-37.958 0-37.958H0z"
                    fill="#99592a" data-fill-palette-color="accent"></path>
                  <path
                    d="M11.543 19.054h76.004c0 0 0 28.772 0 29.024s-0.053 0.583-0.188 0.875-11.192 24.03-11.192 24.03V36.248l11.381-17.194L100 0H23.995L11.543 19.054z"
                    fill="#99592a" data-fill-palette-color="accent"></path>
                  <polyline points="11.543,37.781 11.543,19.371 0.976,37.781 " fill="#99592a"
                    data-fill-palette-color="accent"></polyline>
                </svg>
              </g>
            </svg>
          </g>
        </svg>
      </g>
      <defs></defs>
    </svg>
    <rect width="395.52" height="67.65340560456482" fill="none" stroke="none" visibility="hidden"></rect>
  </g>
</svg>
