<svg viewBox="0 0 640 400" data-background-color="#ffffff" preserveAspectRatio="xMidYMid meet" height="400" width="640"
  xmlns="http://www.w3.org/2000/svg" xmlns:xlink="http://www.w3.org/1999/xlink">
  <rect width="640" height="400" x="0" y="0" opacity="1" fill="#ffffff" data-fill-palette-color="background"
    id="background"></rect>
  <g id="tight-bounds" transform="matrix(1,0,0,1,122.24000000000004,156.94741211511558)">
    <svg
      viewBox="0 0 395.5199999999999 86.10517576976882" height="86.10517576976882" width="395.5199999999999">
      <g>
        <svg viewBox="0 0 587.839271680552 127.97331060989791" height="86.10517576976882" width="395.5199999999999">
          <g transform="matrix(1,0,0,1,192.31927168055202,17.68661528689617)">
            <svg
              viewBox="0 0 395.52 92.60008003610557" height="92.60008003610557" width="395.52">
              <g id="textblocktransform">
                <svg viewBox="0 0 395.52 92.60008003610557" height="92.60008003610557"
                  width="395.52" id="textblock">
                  <g>
                    <svg viewBox="0 0 395.52 67.34029039812647" height="67.34029039812647" width="395.52">
                      <g transform="matrix(1,0,0,1,0,0)">
                        <svg width="395.52"
                          viewBox="1.600000023841858 -35.25 213.489990234375 36.3510856628418"
                          height="67.34029039812647" data-palette-color="#e6b17e">
                          <path
                            d="M13.95 1Q9.25 1 5.85-1.58 2.45-4.15 1.6-8.3L1.6-8.3 5.05-9.8Q5.75-6.7 8.22-4.75 10.7-2.8 14.05-2.8L14.05-2.8Q17.55-2.8 19.78-4.83 22-6.85 22-10.05L22-10.05Q22-11.7 21.35-12.83 20.7-13.95 19.1-14.95 17.5-15.95 14.55-17.15L14.55-17.15Q9.55-19.2 7.35-21.43 5.15-23.65 5.15-26.65L5.15-26.65Q5.15-29.05 6.43-31.03 7.7-33 9.9-34.13 12.1-35.25 14.8-35.25L14.8-35.25Q17.15-35.25 19.07-34.4 21-33.55 22.13-32.08 23.25-30.6 23.25-28.85L23.25-28.85Q23.25-26.7 21.85-25.35 20.45-24 18.3-24L18.3-24Q17.65-24 17.3-24.05L17.3-24.05 17.6-27.45Q17.9-27.35 18.05-27.35L18.05-27.35Q18.55-27.35 18.93-27.78 19.3-28.2 19.3-28.8L19.3-28.8Q19.3-29.9 18-30.68 16.7-31.45 14.9-31.45L14.9-31.45Q12.6-31.45 10.9-30.1 9.2-28.75 9.2-26.85L9.2-26.85Q9.2-25.15 10.9-23.68 12.6-22.2 16.1-20.75L16.1-20.75Q21.45-18.55 23.8-16.07 26.15-13.6 26.15-10.1L26.15-10.1Q26.15-6.95 24.55-4.42 22.95-1.9 20.18-0.45 17.4 1 13.95 1L13.95 1ZM34.45-29.35Q34.45-30.1 34.02-30.68 33.6-31.25 32.75-31.25L32.75-31.25Q31.45-31.2 31.05-30.35L31.05-30.35 28.25-32.35Q28.75-33.4 29.92-34.2 31.1-35 32.95-35L32.95-35Q35.55-35 37.02-33.45 38.5-31.9 38.55-29.4L38.55-29.4 38.55-19.75 55.3-19.75 55.3-34.3 59.4-34.3 59.4 0.05 55.3 0.05 55.3-15.95 38.55-15.95 38.55 0.05 34.45 0.05 34.45-29.35ZM83.84 0.65Q79.8 0.65 76.84-1.28 73.9-3.2 72.32-6.4 70.75-9.6 70.75-13.35L70.75-13.35 70.75-29.4Q70.75-30.15 70.34-30.73 69.95-31.3 69.09-31.3L69.09-31.3Q67.9-31.3 67.34-30.45L67.34-30.45 64.59-32.5Q65.09-33.5 66.27-34.27 67.45-35.05 69.25-35.05L69.25-35.05Q71.9-35.05 73.37-33.48 74.84-31.9 74.84-29.4L74.84-29.4 74.84-13.35Q74.84-10.55 75.9-8.22 76.95-5.9 78.97-4.5 81-3.1 83.8-3.1L83.8-3.1Q86.75-3.1 88.75-4.58 90.75-6.05 91.72-8.4 92.7-10.75 92.7-13.35L92.7-13.35 92.7-34.15 96.8-34.15 96.8-13.35Q96.8-9.85 95.34-6.63 93.9-3.4 90.97-1.38 88.05 0.65 83.84 0.65L83.84 0.65ZM120.94 1.1Q115.99 1.05 112.07-1.23 108.14-3.5 105.92-7.43 103.69-11.35 103.69-16.3L103.69-16.3 103.69-17.75Q103.69-22.5 105.97-26.48 108.24-30.45 112.17-32.77 116.09-35.1 120.74-35.1L120.74-35.1Q125.44-35.1 129.34-32.77 133.24-30.45 135.54-26.48 137.84-22.5 137.84-17.75L137.84-17.75 137.84-16.3Q137.84-11.35 135.62-7.35 133.39-3.35 129.54-1.1 125.69 1.15 120.94 1.1L120.94 1.1ZM120.79-2.7Q124.44-2.7 127.39-4.48 130.34-6.25 132.04-9.35 133.74-12.45 133.74-16.3L133.74-16.3 133.74-17.75Q133.74-21.4 131.99-24.53 130.24-27.65 127.27-29.48 124.29-31.3 120.69-31.3L120.69-31.3Q117.14-31.3 114.19-29.48 111.24-27.65 109.52-24.53 107.79-21.4 107.79-17.75L107.79-17.75 107.79-16.3Q107.79-12.45 109.49-9.35 111.19-6.25 114.17-4.48 117.14-2.7 120.79-2.7L120.79-2.7ZM160.69 1.1Q155.74 1.05 151.82-1.23 147.89-3.5 145.67-7.43 143.44-11.35 143.44-16.3L143.44-16.3 143.44-17.75Q143.44-22.5 145.72-26.48 147.99-30.45 151.92-32.77 155.84-35.1 160.49-35.1L160.49-35.1Q165.19-35.1 169.09-32.77 172.99-30.45 175.29-26.48 177.59-22.5 177.59-17.75L177.59-17.75 177.59-16.3Q177.59-11.35 175.37-7.35 173.14-3.35 169.29-1.1 165.44 1.15 160.69 1.1L160.69 1.1ZM160.54-2.7Q164.19-2.7 167.14-4.48 170.09-6.25 171.79-9.35 173.49-12.45 173.49-16.3L173.49-16.3 173.49-17.75Q173.49-21.4 171.74-24.53 169.99-27.65 167.02-29.48 164.04-31.3 160.44-31.3L160.44-31.3Q156.89-31.3 153.94-29.48 150.99-27.65 149.27-24.53 147.54-21.4 147.54-17.75L147.54-17.75 147.54-16.3Q147.54-12.45 149.24-9.35 150.94-6.25 153.92-4.48 156.89-2.7 160.54-2.7L160.54-2.7ZM185.09 0.45Q183.14 0.45 181.94-0.53 180.74-1.5 180.39-3.05L180.39-3.05 183.34-4.65Q183.49-4 183.86-3.63 184.24-3.25 184.74-3.25L184.74-3.25Q185.24-3.25 185.59-3.63 185.94-4 186.24-4.7L186.24-4.7 198.74-34.4 200.44-34.4 215.09 0.05 210.74 0.05 206.14-11 193.14-11 189.59-2.5Q189.04-1.15 187.74-0.35 186.44 0.45 185.09 0.45L185.09 0.45ZM194.64-14.7L204.44-14.7 199.64-27.4 199.54-28.15 199.49-27.4 194.64-14.7Z"
                            opacity="1" transform="matrix(1,0,0,1,0,0)" fill="#e6b17e" class="wordmark-text-0"
                            data-fill-palette-color="primary" id="text-0"></path>
                        </svg>
                      </g>
                    </svg>
                  </g>
                  <g transform="matrix(1,0,0,1,75.54432000000001,83.23771679415458)">
                    <svg
                      viewBox="0 0 244.43135999999996 9.36236324195099" height="9.36236324195099"
                      width="244.43135999999996">
                      <g transform="matrix(1,0,0,1,0,0)">
                        <svg width="244.43135999999996"
                          viewBox="0.9800000190734863 -35.5 939.4600219726562 35.9900016784668"
                          height="9.36236324195099" data-palette-color="#99592a">
                          <path
                            d="M35.33-35.01L35.33-28.66 21.34-28.66 21.34 0 14.99 0 14.99-28.66 0.98-28.66 0.98-35.01 35.33-35.01ZM76.24-20.85L76.24-14.16Q76.24-10.96 75.14-8.28 74.05-5.59 72.09-3.64 70.14-1.68 67.47-0.6 64.79 0.49 61.64 0.49L61.64 0.49 53.05 0.49Q49.9 0.49 47.21-0.6 44.53-1.68 42.58-3.64 40.62-5.59 39.51-8.28 38.4-10.96 38.4-14.16L38.4-14.16 38.4-20.85Q38.4-24.02 39.51-26.72 40.62-29.42 42.58-31.36 44.53-33.3 47.21-34.4 49.9-35.5 53.05-35.5L53.05-35.5 61.64-35.5Q64.79-35.5 67.47-34.4 70.14-33.3 72.09-31.36 74.05-29.42 75.14-26.72 76.24-24.02 76.24-20.85L76.24-20.85ZM69.89-14.16L69.89-20.85Q69.89-22.73 69.3-24.26 68.7-25.78 67.61-26.87 66.53-27.95 65-28.55 63.47-29.15 61.64-29.15L61.64-29.15 53.05-29.15Q51.19-29.15 49.67-28.55 48.14-27.95 47.04-26.87 45.94-25.78 45.35-24.26 44.75-22.73 44.75-20.85L44.75-20.85 44.75-14.16Q44.75-12.28 45.35-10.75 45.94-9.23 47.04-8.14 48.14-7.06 49.67-6.46 51.19-5.86 53.05-5.86L53.05-5.86 61.59-5.86Q63.45-5.86 64.98-6.46 66.5-7.06 67.6-8.14 68.7-9.23 69.3-10.75 69.89-12.28 69.89-14.16L69.89-14.16ZM117.47-17.5L135.47 0 126.46 0 112.18-14.31 107.71-14.31 107.71-20.7 112.18-20.7 126.46-35.01 135.47-35.01 117.47-17.5ZM105.17-35.01L105.17 0 98.82 0 98.82-35.01 105.17-35.01ZM167.98-20.7L167.98-14.31 147.94-14.31 147.94-20.7 167.98-20.7ZM170.84-6.35L170.84 0 147.94 0Q146.62 0 145.06-0.46 143.5-0.93 142.17-1.99 140.83-3.05 139.94-4.75 139.05-6.45 139.05-8.91L139.05-8.91 139.05-31.81Q139.05-32.47 139.3-33.06 139.54-33.64 139.97-34.08 140.4-34.52 140.98-34.77 141.57-35.01 142.25-35.01L142.25-35.01 170.84-35.01 170.84-28.66 145.4-28.66 145.4-8.91Q145.4-7.67 146.06-7.01 146.72-6.35 147.99-6.35L147.99-6.35 170.84-6.35ZM205.75-20.7L205.75-14.31 185.71-14.31 185.71-20.7 205.75-20.7ZM208.61-6.35L208.61 0 185.71 0Q184.39 0 182.82-0.46 181.26-0.93 179.93-1.99 178.6-3.05 177.71-4.75 176.82-6.45 176.82-8.91L176.82-8.91 176.82-31.81Q176.82-32.47 177.06-33.06 177.31-33.64 177.73-34.08 178.16-34.52 178.75-34.77 179.33-35.01 180.02-35.01L180.02-35.01 208.61-35.01 208.61-28.66 183.17-28.66 183.17-8.91Q183.17-7.67 183.83-7.01 184.48-6.35 185.75-6.35L185.75-6.35 208.61-6.35ZM249.62-23.24L249.62-20.36Q249.62-18.19 249.08-16.48 248.54-14.77 247.63-13.46 246.71-12.16 245.52-11.23 244.32-10.3 243.01-9.72 241.71-9.13 240.38-8.86 239.05-8.59 237.88-8.59L237.88-8.59 223.52-8.59 223.52-14.94 237.88-14.94Q239.1-15.04 240.09-15.44 241.07-15.84 241.78-16.53 242.49-17.21 242.88-18.18 243.27-19.14 243.27-20.36L243.27-20.36 243.27-23.24Q243.15-24.44 242.76-25.44 242.37-26.44 241.7-27.15 241.03-27.86 240.07-28.26 239.12-28.66 237.88-28.66L237.88-28.66 223.57-28.66Q222.3-28.66 221.64-28 220.98-27.34 220.98-26.1L220.98-26.1 220.98 0 214.63 0 214.63-26.1Q214.63-28.54 215.52-30.25 216.42-31.96 217.75-33.01 219.08-34.06 220.64-34.53 222.2-35.01 223.52-35.01L223.52-35.01 237.88-35.01Q240.02-35.01 241.73-34.46 243.44-33.91 244.75-33 246.05-32.08 246.97-30.88 247.89-29.69 248.48-28.38 249.08-27.08 249.35-25.74 249.62-24.41 249.62-23.24L249.62-23.24ZM303.79-35.01L303.79-23.29Q303.79-21.12 303.24-19.41 302.69-17.7 301.79-16.39 300.88-15.09 299.67-14.16 298.47-13.23 297.17-12.63 295.88-12.04 294.55-11.77 293.22-11.5 292.05-11.5L292.05-11.5 289.48-11.5 289.48 0 283.09 0 283.09-11.5 280.55-11.5Q279.37-11.5 278.04-11.77 276.71-12.04 275.41-12.63 274.1-13.23 272.9-14.16 271.71-15.09 270.79-16.39 269.88-17.7 269.33-19.42 268.78-21.14 268.78-23.29L268.78-23.29 268.78-35.01 275.13-35.01 275.13-23.29Q275.13-22.05 275.52-21.06 275.91-20.07 276.62-19.36 277.32-18.65 278.34-18.27 279.35-17.9 280.6-17.9L280.6-17.9 292.05-17.9Q292.95-18.04 293.9-18.27 294.85-18.51 295.63-19.07 296.42-19.63 296.93-20.63 297.44-21.63 297.44-23.29L297.44-23.29 297.44-35.01 303.79-35.01ZM346.24-20.85L346.24-14.16Q346.24-10.96 345.14-8.28 344.04-5.59 342.09-3.64 340.14-1.68 337.47-0.6 334.79 0.49 331.64 0.49L331.64 0.49 323.05 0.49Q319.9 0.49 317.21-0.6 314.53-1.68 312.58-3.64 310.62-5.59 309.51-8.28 308.4-10.96 308.4-14.16L308.4-14.16 308.4-20.85Q308.4-24.02 309.51-26.72 310.62-29.42 312.58-31.36 314.53-33.3 317.21-34.4 319.9-35.5 323.05-35.5L323.05-35.5 331.64-35.5Q334.79-35.5 337.47-34.4 340.14-33.3 342.09-31.36 344.04-29.42 345.14-26.72 346.24-24.02 346.24-20.85L346.24-20.85ZM339.89-14.16L339.89-20.85Q339.89-22.73 339.3-24.26 338.7-25.78 337.61-26.87 336.53-27.95 335-28.55 333.47-29.15 331.64-29.15L331.64-29.15 323.05-29.15Q321.19-29.15 319.67-28.55 318.14-27.95 317.04-26.87 315.94-25.78 315.35-24.26 314.75-22.73 314.75-20.85L314.75-20.85 314.75-14.16Q314.75-12.28 315.35-10.75 315.94-9.23 317.04-8.14 318.14-7.06 319.67-6.46 321.19-5.86 323.05-5.86L323.05-5.86 331.59-5.86Q333.45-5.86 334.98-6.46 336.5-7.06 337.6-8.14 338.7-9.23 339.3-10.75 339.89-12.28 339.89-14.16L339.89-14.16ZM386.82-35.01L386.82-3.2Q386.82-2.51 386.57-1.93 386.33-1.34 385.89-0.92 385.45-0.49 384.86-0.24 384.28 0 383.62 0L383.62 0 369.31 0Q367.28 0 365.21-0.44 363.13-0.88 361.19-1.79 359.25-2.71 357.54-4.13 355.83-5.54 354.55-7.48 353.27-9.42 352.54-11.93 351.81-14.43 351.81-17.5L351.81-17.5 351.81-35.01 358.15-35.01 358.15-17.5Q358.15-14.82 358.9-12.96 359.64-11.11 360.79-9.86 361.94-8.62 363.31-7.91 364.67-7.2 365.91-6.86 367.14-6.52 368.08-6.43 369.02-6.35 369.31-6.35L369.31-6.35 380.47-6.35 380.47-35.01 386.82-35.01ZM429.17-27.29L429.17-23.24Q429.17-21.07 428.63-19.36 428.1-17.65 427.18-16.35 426.27-15.04 425.07-14.11 423.87-13.18 422.57-12.59 421.26-11.99 419.93-11.72 418.6-11.45 417.43-11.45L417.43-11.45 430.69 0 420.87 0 407.64-11.45 403.07-11.45 403.07-17.8 417.43-17.8Q418.62-17.9 419.61-18.3 420.6-18.7 421.32-19.38 422.04-20.07 422.43-21.03 422.82-22 422.82-23.24L422.82-23.24 422.82-27.25Q422.82-27.78 422.69-28.06 422.56-28.34 422.35-28.48 422.14-28.61 421.91-28.64 421.68-28.66 421.48-28.66L421.48-28.66 400.53-28.66 400.53 0 394.19 0 394.19-31.81Q394.19-32.47 394.43-33.06 394.67-33.64 395.1-34.08 395.53-34.52 396.12-34.77 396.7-35.01 397.38-35.01L397.38-35.01 421.48-35.01Q423.61-35.01 425.07-34.24 426.54-33.47 427.45-32.31 428.37-31.15 428.77-29.81 429.17-28.47 429.17-27.29L429.17-27.29ZM486.42-23.24L486.42-20.36Q486.42-18.19 485.88-16.48 485.34-14.77 484.43-13.46 483.51-12.16 482.32-11.23 481.12-10.3 479.81-9.72 478.51-9.13 477.18-8.86 475.85-8.59 474.67-8.59L474.67-8.59 460.32-8.59 460.32-14.94 474.67-14.94Q475.9-15.04 476.88-15.44 477.87-15.84 478.58-16.53 479.29-17.21 479.68-18.18 480.07-19.14 480.07-20.36L480.07-20.36 480.07-23.24Q479.95-24.44 479.56-25.44 479.17-26.44 478.5-27.15 477.82-27.86 476.87-28.26 475.92-28.66 474.67-28.66L474.67-28.66 460.37-28.66Q459.1-28.66 458.44-28 457.78-27.34 457.78-26.1L457.78-26.1 457.78 0 451.43 0 451.43-26.1Q451.43-28.54 452.32-30.25 453.21-31.96 454.55-33.01 455.88-34.06 457.44-34.53 459-35.01 460.32-35.01L460.32-35.01 474.67-35.01Q476.82-35.01 478.53-34.46 480.24-33.91 481.55-33 482.85-32.08 483.77-30.88 484.68-29.69 485.28-28.38 485.88-27.08 486.15-25.74 486.42-24.41 486.42-23.24L486.42-23.24ZM526.19-31.81L526.19 0 519.84 0 519.84-8.59 497.52-8.59 497.52 0 491.18 0 491.18-17.5Q491.18-21.34 492.49-24.56 493.81-27.78 496.16-30.1 498.5-32.42 501.7-33.72 504.9-35.01 508.68-35.01L508.68-35.01 522.99-35.01Q523.65-35.01 524.23-34.77 524.82-34.52 525.26-34.08 525.7-33.64 525.94-33.06 526.19-32.47 526.19-31.81L526.19-31.81ZM497.52-17.5L497.52-14.94 519.84-14.94 519.84-28.66 508.68-28.66Q508.39-28.66 507.45-28.58 506.51-28.49 505.28-28.15 504.04-27.81 502.67-27.1 501.31-26.39 500.16-25.15 499.01-23.9 498.27-22.03 497.52-20.17 497.52-17.5L497.52-17.5ZM564.9-6.35L564.9 0 542 0Q541.12 0 540.11-0.21 539.1-0.42 538.11-0.85 537.12-1.29 536.22-1.99 535.31-2.69 534.62-3.67 533.92-4.66 533.51-5.97 533.09-7.28 533.09-8.91L533.09-8.91 533.09-26.1Q533.09-26.98 533.3-27.99 533.51-29 533.95-29.99 534.39-30.98 535.09-31.88 535.8-32.79 536.79-33.48 537.78-34.18 539.07-34.59 540.37-35.01 542-35.01L542-35.01 564.9-35.01 564.9-28.66 542-28.66Q540.76-28.66 540.1-28 539.44-27.34 539.44-26.05L539.44-26.05 539.44-8.91Q539.44-7.69 540.11-7.02 540.78-6.35 542-6.35L542-6.35 564.9-6.35ZM589.61-17.5L607.6 0 598.59 0 584.31-14.31 579.84-14.31 579.84-20.7 584.31-20.7 598.59-35.01 607.6-35.01 589.61-17.5ZM577.3-35.01L577.3 0 570.96 0 570.96-35.01 577.3-35.01ZM645.93-31.81L645.93 0 639.58 0 639.58-8.59 617.27-8.59 617.27 0 610.92 0 610.92-17.5Q610.92-21.34 612.24-24.56 613.56-27.78 615.9-30.1 618.24-32.42 621.44-33.72 624.64-35.01 628.42-35.01L628.42-35.01 642.73-35.01Q643.39-35.01 643.98-34.77 644.56-34.52 645-34.08 645.44-33.64 645.69-33.06 645.93-32.47 645.93-31.81L645.93-31.81ZM617.27-17.5L617.27-14.94 639.58-14.94 639.58-28.66 628.42-28.66Q628.13-28.66 627.19-28.58 626.25-28.49 625.02-28.15 623.79-27.81 622.42-27.1 621.05-26.39 619.9-25.15 618.76-23.9 618.01-22.03 617.27-20.17 617.27-17.5L617.27-17.5ZM687.85-17.5L687.85-3.2Q687.85-2.51 687.6-1.93 687.36-1.34 686.93-0.92 686.5-0.49 685.92-0.24 685.33 0 684.65 0L684.65 0 661.75 0Q660.87 0 659.85-0.21 658.84-0.42 657.85-0.85 656.86-1.29 655.96-1.99 655.06-2.69 654.36-3.67 653.67-4.66 653.25-5.97 652.84-7.28 652.84-8.91L652.84-8.91 652.84-26.1Q652.84-26.98 653.04-27.99 653.25-29 653.69-29.99 654.13-30.98 654.84-31.88 655.55-32.79 656.53-33.48 657.52-34.18 658.82-34.59 660.11-35.01 661.75-35.01L661.75-35.01 687.55-35.01 687.55-28.66 661.75-28.66Q660.5-28.66 659.84-28 659.18-27.34 659.18-26.05L659.18-26.05 659.18-8.91Q659.18-7.69 659.85-7.02 660.53-6.35 661.75-6.35L661.75-6.35 681.5-6.35 681.5-14.31 664.6-14.31 664.6-20.7 684.65-20.7Q685.33-20.7 685.92-20.45 686.5-20.19 686.93-19.75 687.36-19.31 687.6-18.74 687.85-18.16 687.85-17.5L687.85-17.5ZM723.24-20.7L723.24-14.31 703.2-14.31 703.2-20.7 723.24-20.7ZM726.1-6.35L726.1 0 703.2 0Q701.88 0 700.32-0.46 698.76-0.93 697.43-1.99 696.1-3.05 695.2-4.75 694.31-6.45 694.31-8.91L694.31-8.91 694.31-31.81Q694.31-32.47 694.56-33.06 694.8-33.64 695.23-34.08 695.66-34.52 696.24-34.77 696.83-35.01 697.51-35.01L697.51-35.01 726.1-35.01 726.1-28.66 700.66-28.66 700.66-8.91Q700.66-7.67 701.32-7.01 701.98-6.35 703.25-6.35L703.25-6.35 726.1-6.35ZM782.13-10.3L782.13-10.3Q782.13-8.42 781.65-6.92 781.17-5.42 780.39-4.27 779.61-3.13 778.56-2.32 777.51-1.51 776.39-1 775.26-0.49 774.11-0.24 772.95 0 771.92 0L771.92 0 747.43 0 747.43-6.35 771.92-6.35Q773.75-6.35 774.76-7.42 775.78-8.5 775.78-10.3L775.78-10.3Q775.78-11.18 775.51-11.91 775.24-12.65 774.74-13.18 774.24-13.72 773.52-14.01 772.8-14.31 771.92-14.31L771.92-14.31 757.32-14.31Q755.78-14.31 754-14.86 752.22-15.41 750.69-16.63 749.17-17.85 748.15-19.82 747.14-21.8 747.14-24.66L747.14-24.66Q747.14-27.51 748.15-29.48 749.17-31.45 750.69-32.68 752.22-33.91 754-34.46 755.78-35.01 757.32-35.01L757.32-35.01 778.93-35.01 778.93-28.66 757.32-28.66Q755.51-28.66 754.5-27.56 753.49-26.46 753.49-24.66L753.49-24.66Q753.49-22.83 754.5-21.77 755.51-20.7 757.32-20.7L757.32-20.7 771.92-20.7 771.97-20.7Q772.99-20.68 774.14-20.42 775.29-20.17 776.42-19.63 777.56-19.09 778.59-18.27 779.61-17.46 780.4-16.31 781.2-15.16 781.66-13.67 782.13-12.18 782.13-10.3ZM821.75-31.81L821.75 0 815.4 0 815.4-8.59 793.08-8.59 793.08 0 786.74 0 786.74-17.5Q786.74-21.34 788.06-24.56 789.37-27.78 791.72-30.1 794.06-32.42 797.26-33.72 800.46-35.01 804.24-35.01L804.24-35.01 818.55-35.01Q819.21-35.01 819.79-34.77 820.38-34.52 820.82-34.08 821.26-33.64 821.5-33.06 821.75-32.47 821.75-31.81L821.75-31.81ZM793.08-17.5L793.08-14.94 815.4-14.94 815.4-28.66 804.24-28.66Q803.95-28.66 803.01-28.58 802.07-28.49 800.84-28.15 799.6-27.81 798.24-27.1 796.87-26.39 795.72-25.15 794.57-23.9 793.83-22.03 793.08-20.17 793.08-17.5L793.08-17.5ZM857.07-35.01L864.15-35.01 847.57-1.25Q847.18-0.46 846.41 0.01 845.65 0.49 844.72 0.49L844.72 0.49Q843.81 0.49 843.05 0.01 842.28-0.46 841.86-1.25L841.86-1.25 825.31-35.01 832.41-35.01 844.72-9.79 857.07-35.01ZM896.52-20.7L896.52-14.31 876.48-14.31 876.48-20.7 896.52-20.7ZM899.38-6.35L899.38 0 876.48 0Q875.16 0 873.6-0.46 872.03-0.93 870.7-1.99 869.37-3.05 868.48-4.75 867.59-6.45 867.59-8.91L867.59-8.91 867.59-31.81Q867.59-32.47 867.84-33.06 868.08-33.64 868.51-34.08 868.93-34.52 869.52-34.77 870.11-35.01 870.79-35.01L870.79-35.01 899.38-35.01 899.38-28.66 873.94-28.66 873.94-8.91Q873.94-7.67 874.6-7.01 875.26-6.35 876.53-6.35L876.53-6.35 899.38-6.35ZM940.44-20.36L940.44-14.65Q940.44-11.45 939.33-8.76 938.22-6.08 936.27-4.14 934.31-2.2 931.63-1.1 928.94 0 925.79 0L925.79 0 908.65 0Q907.97 0 907.38-0.24 906.8-0.49 906.37-0.92 905.94-1.34 905.7-1.93 905.46-2.51 905.46-3.2L905.46-3.2 905.46-31.81Q905.46-32.47 905.7-33.06 905.94-33.64 906.37-34.08 906.8-34.52 907.38-34.77 907.97-35.01 908.65-35.01L908.65-35.01 925.79-35.01Q928.94-35.01 931.63-33.91 934.31-32.81 936.27-30.87 938.22-28.93 939.33-26.23 940.44-23.54 940.44-20.36L940.44-20.36ZM934.09-14.65L934.09-20.36Q934.09-22.22 933.49-23.75 932.9-25.29 931.8-26.38 930.7-27.47 929.17-28.06 927.65-28.66 925.79-28.66L925.79-28.66 911.8-28.66 911.8-6.35 925.79-6.35Q927.65-6.35 929.17-6.95 930.7-7.54 931.8-8.63 932.9-9.72 933.49-11.24 934.09-12.77 934.09-14.65L934.09-14.65Z"
                            opacity="1" transform="matrix(1,0,0,1,0,0)" fill="#99592a" class="slogan-text-1"
                            data-fill-palette-color="secondary" id="text-1"></path>
                        </svg>
                      </g>
                    </svg>
                  </g>
                </svg>
              </g>
            </svg>
          </g>
          <g>
            <svg viewBox="0 0 176.42184528452393 127.97331060989791" height="127.97331060989791"
              width="176.42184528452393">
              <g>
                <svg xmlns="http://www.w3.org/2000/svg" xmlns:xlink="http://www.w3.org/1999/xlink" version="1.1" x="8"
                  y="0" viewBox="0 0 100 79.77299499511719" enable-background="new 0 0 100 79.773" xml:space="preserve"
                  width="160.42184528452393" height="127.97331060989791" class="icon-icon-0"
                  data-fill-palette-color="accent" id="icon-0">
                  <path
                    d="M0 39.481c0 0 0 35.068 0 36.753 0 2.297 1 3.539 2.957 3.539 1.303 0 54.212 0 67.46 0 2.104 0 3.725-1.711 3.725-2.334 0-0.418 0-37.958 0-37.958H0z"
                    fill="#99592a" data-fill-palette-color="accent"></path>
                  <path
                    d="M11.543 19.054h76.004c0 0 0 28.772 0 29.024s-0.053 0.583-0.188 0.875-11.192 24.03-11.192 24.03V36.248l11.381-17.194L100 0H23.995L11.543 19.054z"
                    fill="#99592a" data-fill-palette-color="accent"></path>
                  <polyline points="11.543,37.781 11.543,19.371 0.976,37.781 " fill="#99592a"
                    data-fill-palette-color="accent"></polyline>
                </svg>
              </g>
            </svg>
          </g>
        </svg>
      </g>
      <defs></defs>
    </svg>
    <rect width="395.5199999999999" height="86.10517576976882" fill="none" stroke="none" visibility="hidden"></rect>
  </g>
</svg>
